<mxfile host="Electron" modified="2024-07-26T07:06:30.163Z" agent="Mozilla/5.0 (Macintosh; Intel Mac OS X 10_15_7) AppleWebKit/537.36 (KHTML, like Gecko) draw.io/24.6.4 Chrome/124.0.6367.207 Electron/30.0.6 Safari/537.36" etag="ZGVTTMh1r69zHgMkgDyb" version="24.6.4" type="device" pages="2">
  <diagram name="blueprint_v1" id="qTMo8lok98AjKXC2Dlvm">
    <mxGraphModel dx="760" dy="787" grid="1" gridSize="10" guides="1" tooltips="1" connect="1" arrows="1" fold="1" page="1" pageScale="1" pageWidth="827" pageHeight="1169" math="0" shadow="0">
      <root>
        <mxCell id="0" />
        <mxCell id="1" parent="0" />
        <mxCell id="tpyEGzMOeepDp_RAvhDk-25" style="edgeStyle=orthogonalEdgeStyle;rounded=0;orthogonalLoop=1;jettySize=auto;html=1;exitX=1;exitY=0.25;exitDx=0;exitDy=0;entryX=0;entryY=0.5;entryDx=0;entryDy=0;" edge="1" parent="1" source="tpyEGzMOeepDp_RAvhDk-2" target="tpyEGzMOeepDp_RAvhDk-13">
          <mxGeometry relative="1" as="geometry" />
        </mxCell>
        <mxCell id="tpyEGzMOeepDp_RAvhDk-2" value="채팅 데이터&lt;div&gt;parser&lt;/div&gt;" style="rounded=0;whiteSpace=wrap;html=1;" vertex="1" parent="1">
          <mxGeometry x="160" y="20" width="320" height="180" as="geometry" />
        </mxCell>
        <mxCell id="tpyEGzMOeepDp_RAvhDk-12" style="edgeStyle=orthogonalEdgeStyle;rounded=0;orthogonalLoop=1;jettySize=auto;html=1;entryX=-0.005;entryY=0.722;entryDx=0;entryDy=0;entryPerimeter=0;" edge="1" parent="1" source="tpyEGzMOeepDp_RAvhDk-6" target="tpyEGzMOeepDp_RAvhDk-2">
          <mxGeometry relative="1" as="geometry" />
        </mxCell>
        <mxCell id="tpyEGzMOeepDp_RAvhDk-6" value="&lt;div&gt;&lt;br&gt;&lt;/div&gt;채팅.txt" style="shape=note;whiteSpace=wrap;html=1;backgroundOutline=1;darkOpacity=0.05;size=19;" vertex="1" parent="1">
          <mxGeometry x="40" y="120" width="60" height="60" as="geometry" />
        </mxCell>
        <mxCell id="tpyEGzMOeepDp_RAvhDk-23" style="edgeStyle=orthogonalEdgeStyle;rounded=0;orthogonalLoop=1;jettySize=auto;html=1;entryX=-0.005;entryY=0.282;entryDx=0;entryDy=0;dashed=1;entryPerimeter=0;" edge="1" parent="1" source="tpyEGzMOeepDp_RAvhDk-8" target="tpyEGzMOeepDp_RAvhDk-2">
          <mxGeometry relative="1" as="geometry" />
        </mxCell>
        <mxCell id="tpyEGzMOeepDp_RAvhDk-24" value="file path" style="edgeLabel;html=1;align=center;verticalAlign=middle;resizable=0;points=[];" vertex="1" connectable="0" parent="tpyEGzMOeepDp_RAvhDk-23">
          <mxGeometry x="-0.1081" y="-1" relative="1" as="geometry">
            <mxPoint y="-11" as="offset" />
          </mxGeometry>
        </mxCell>
        <mxCell id="tpyEGzMOeepDp_RAvhDk-8" value="&lt;div&gt;&lt;br&gt;&lt;/div&gt;images&lt;div&gt;&lt;/div&gt;" style="shape=note;whiteSpace=wrap;html=1;backgroundOutline=1;darkOpacity=0.05;size=19;" vertex="1" parent="1">
          <mxGeometry x="40" y="40" width="60" height="60" as="geometry" />
        </mxCell>
        <mxCell id="tpyEGzMOeepDp_RAvhDk-17" value="" style="edgeStyle=orthogonalEdgeStyle;rounded=0;orthogonalLoop=1;jettySize=auto;html=1;entryX=0;entryY=0.25;entryDx=0;entryDy=0;" edge="1" parent="1" source="tpyEGzMOeepDp_RAvhDk-15" target="tpyEGzMOeepDp_RAvhDk-16">
          <mxGeometry relative="1" as="geometry" />
        </mxCell>
        <mxCell id="tpyEGzMOeepDp_RAvhDk-15" value="채팅 json&lt;div&gt;데이터&lt;/div&gt;" style="shape=document;whiteSpace=wrap;html=1;boundedLbl=1;rounded=0;" vertex="1" parent="1">
          <mxGeometry x="160" y="280" width="80" height="60" as="geometry" />
        </mxCell>
        <mxCell id="tpyEGzMOeepDp_RAvhDk-19" style="edgeStyle=orthogonalEdgeStyle;rounded=0;orthogonalLoop=1;jettySize=auto;html=1;" edge="1" parent="1" source="tpyEGzMOeepDp_RAvhDk-16" target="tpyEGzMOeepDp_RAvhDk-18">
          <mxGeometry relative="1" as="geometry" />
        </mxCell>
        <mxCell id="tpyEGzMOeepDp_RAvhDk-16" value="웹 브라우저" style="whiteSpace=wrap;html=1;rounded=0;" vertex="1" parent="1">
          <mxGeometry x="280" y="310" width="100" height="80" as="geometry" />
        </mxCell>
        <mxCell id="tpyEGzMOeepDp_RAvhDk-18" value="client" style="shape=umlActor;verticalLabelPosition=bottom;verticalAlign=top;html=1;outlineConnect=0;" vertex="1" parent="1">
          <mxGeometry x="420" y="320" width="30" height="60" as="geometry" />
        </mxCell>
        <mxCell id="tpyEGzMOeepDp_RAvhDk-29" style="edgeStyle=orthogonalEdgeStyle;rounded=0;orthogonalLoop=1;jettySize=auto;html=1;entryX=0;entryY=0.75;entryDx=0;entryDy=0;" edge="1" parent="1" source="tpyEGzMOeepDp_RAvhDk-20" target="tpyEGzMOeepDp_RAvhDk-16">
          <mxGeometry relative="1" as="geometry" />
        </mxCell>
        <mxCell id="tpyEGzMOeepDp_RAvhDk-20" value="&lt;div&gt;&lt;br&gt;&lt;/div&gt;images&lt;div&gt;&lt;/div&gt;" style="shape=note;whiteSpace=wrap;html=1;backgroundOutline=1;darkOpacity=0.05;size=19;" vertex="1" parent="1">
          <mxGeometry x="160" y="350" width="80" height="60" as="geometry" />
        </mxCell>
        <mxCell id="tpyEGzMOeepDp_RAvhDk-28" value="&lt;div&gt;&lt;br&gt;&lt;/div&gt;&lt;div&gt;&lt;br&gt;&lt;/div&gt;&lt;div&gt;[&lt;/div&gt;&lt;div&gt;&amp;nbsp; {&lt;/div&gt;&lt;div&gt;&amp;nbsp; &amp;nbsp; &quot;timestamp&quot;: &quot;2024-07-23T04:46:00.000Z&quot;,&lt;/div&gt;&lt;div&gt;&amp;nbsp; &amp;nbsp; &quot;sender&quot;: &quot;김승현&quot;,&lt;/div&gt;&lt;div&gt;&amp;nbsp; &amp;nbsp; &quot;message&quot;: &quot;이새끼 뭐임&quot;,&lt;/div&gt;&lt;div&gt;&amp;nbsp; &amp;nbsp; &quot;imageInfo&quot;: {&lt;/div&gt;&lt;div&gt;&amp;nbsp; &amp;nbsp; &amp;nbsp; &quot;imageTF&quot;: false,&lt;/div&gt;&lt;div&gt;&amp;nbsp; &amp;nbsp; &amp;nbsp; &quot;imagePath&quot;: [],&lt;/div&gt;&lt;div&gt;&amp;nbsp; &amp;nbsp; &amp;nbsp; &quot;imageCnt&quot;: 0&lt;/div&gt;&lt;div&gt;&amp;nbsp; &amp;nbsp; }&lt;/div&gt;&lt;div&gt;&amp;nbsp; }&lt;/div&gt;&lt;div&gt;]&lt;/div&gt;" style="rounded=0;whiteSpace=wrap;html=1;align=left;" vertex="1" parent="1">
          <mxGeometry x="540" y="50" width="260" height="220" as="geometry" />
        </mxCell>
        <mxCell id="tpyEGzMOeepDp_RAvhDk-13" value="채팅 json 데이터" style="shape=document;whiteSpace=wrap;html=1;boundedLbl=1;rounded=0;" vertex="1" parent="1">
          <mxGeometry x="520" y="20" width="120" height="65" as="geometry" />
        </mxCell>
      </root>
    </mxGraphModel>
  </diagram>
  <diagram name="blueprint_v2" id="u-fr9d8srTtXxMsNWHHR">
    <mxGraphModel dx="671" dy="694" grid="1" gridSize="10" guides="1" tooltips="1" connect="1" arrows="1" fold="1" page="1" pageScale="1" pageWidth="827" pageHeight="1169" math="0" shadow="0">
      <root>
        <mxCell id="mG2xkw9-U8OINMELvQXI-0" />
        <mxCell id="mG2xkw9-U8OINMELvQXI-1" parent="mG2xkw9-U8OINMELvQXI-0" />
        <mxCell id="INxvwW3Ftz1yXAZ4FPZy-19" value="" style="rounded=0;whiteSpace=wrap;html=1;" vertex="1" parent="mG2xkw9-U8OINMELvQXI-1">
          <mxGeometry x="20" y="320" width="100" height="180" as="geometry" />
        </mxCell>
        <mxCell id="mG2xkw9-U8OINMELvQXI-2" style="edgeStyle=orthogonalEdgeStyle;rounded=0;orthogonalLoop=1;jettySize=auto;html=1;exitX=1;exitY=0.25;exitDx=0;exitDy=0;entryX=0;entryY=0.5;entryDx=0;entryDy=0;" edge="1" parent="mG2xkw9-U8OINMELvQXI-1" source="mG2xkw9-U8OINMELvQXI-3" target="mG2xkw9-U8OINMELvQXI-17">
          <mxGeometry relative="1" as="geometry" />
        </mxCell>
        <mxCell id="mG2xkw9-U8OINMELvQXI-3" value="채팅 데이터&lt;div&gt;parser&lt;/div&gt;" style="rounded=0;whiteSpace=wrap;html=1;" vertex="1" parent="mG2xkw9-U8OINMELvQXI-1">
          <mxGeometry x="160" y="20" width="320" height="180" as="geometry" />
        </mxCell>
        <mxCell id="mG2xkw9-U8OINMELvQXI-4" style="edgeStyle=orthogonalEdgeStyle;rounded=0;orthogonalLoop=1;jettySize=auto;html=1;entryX=-0.005;entryY=0.722;entryDx=0;entryDy=0;entryPerimeter=0;" edge="1" parent="mG2xkw9-U8OINMELvQXI-1" source="mG2xkw9-U8OINMELvQXI-5" target="mG2xkw9-U8OINMELvQXI-3">
          <mxGeometry relative="1" as="geometry" />
        </mxCell>
        <mxCell id="mG2xkw9-U8OINMELvQXI-5" value="&lt;div&gt;&lt;br&gt;&lt;/div&gt;채팅.txt" style="shape=note;whiteSpace=wrap;html=1;backgroundOutline=1;darkOpacity=0.05;size=19;" vertex="1" parent="mG2xkw9-U8OINMELvQXI-1">
          <mxGeometry x="60" y="120" width="60" height="60" as="geometry" />
        </mxCell>
        <mxCell id="mG2xkw9-U8OINMELvQXI-8" value="&lt;div&gt;&lt;br&gt;&lt;/div&gt;images&lt;div&gt;&lt;/div&gt;" style="shape=note;whiteSpace=wrap;html=1;backgroundOutline=1;darkOpacity=0.05;size=19;" vertex="1" parent="mG2xkw9-U8OINMELvQXI-1">
          <mxGeometry x="60" y="40" width="60" height="60" as="geometry" />
        </mxCell>
        <mxCell id="mG2xkw9-U8OINMELvQXI-9" value="" style="edgeStyle=orthogonalEdgeStyle;rounded=0;orthogonalLoop=1;jettySize=auto;html=1;entryX=0;entryY=0.25;entryDx=0;entryDy=0;" edge="1" parent="mG2xkw9-U8OINMELvQXI-1" source="mG2xkw9-U8OINMELvQXI-10" target="mG2xkw9-U8OINMELvQXI-12">
          <mxGeometry relative="1" as="geometry" />
        </mxCell>
        <mxCell id="mG2xkw9-U8OINMELvQXI-10" value="채팅 json&lt;div&gt;데이터&lt;/div&gt;" style="shape=document;whiteSpace=wrap;html=1;boundedLbl=1;rounded=0;" vertex="1" parent="mG2xkw9-U8OINMELvQXI-1">
          <mxGeometry x="160" y="1030" width="80" height="60" as="geometry" />
        </mxCell>
        <mxCell id="mG2xkw9-U8OINMELvQXI-11" style="edgeStyle=orthogonalEdgeStyle;rounded=0;orthogonalLoop=1;jettySize=auto;html=1;" edge="1" parent="mG2xkw9-U8OINMELvQXI-1" source="mG2xkw9-U8OINMELvQXI-12" target="mG2xkw9-U8OINMELvQXI-13">
          <mxGeometry relative="1" as="geometry" />
        </mxCell>
        <mxCell id="mG2xkw9-U8OINMELvQXI-12" value="웹 브라우저" style="whiteSpace=wrap;html=1;rounded=0;" vertex="1" parent="mG2xkw9-U8OINMELvQXI-1">
          <mxGeometry x="280" y="1060" width="100" height="80" as="geometry" />
        </mxCell>
        <mxCell id="mG2xkw9-U8OINMELvQXI-13" value="client" style="shape=umlActor;verticalLabelPosition=bottom;verticalAlign=top;html=1;outlineConnect=0;" vertex="1" parent="mG2xkw9-U8OINMELvQXI-1">
          <mxGeometry x="420" y="1070" width="30" height="60" as="geometry" />
        </mxCell>
        <mxCell id="mG2xkw9-U8OINMELvQXI-14" style="edgeStyle=orthogonalEdgeStyle;rounded=0;orthogonalLoop=1;jettySize=auto;html=1;entryX=0;entryY=0.75;entryDx=0;entryDy=0;" edge="1" parent="mG2xkw9-U8OINMELvQXI-1" source="mG2xkw9-U8OINMELvQXI-15" target="mG2xkw9-U8OINMELvQXI-12">
          <mxGeometry relative="1" as="geometry" />
        </mxCell>
        <mxCell id="mG2xkw9-U8OINMELvQXI-15" value="&lt;div&gt;&lt;br&gt;&lt;/div&gt;images&lt;div&gt;&lt;/div&gt;" style="shape=note;whiteSpace=wrap;html=1;backgroundOutline=1;darkOpacity=0.05;size=19;" vertex="1" parent="mG2xkw9-U8OINMELvQXI-1">
          <mxGeometry x="160" y="1100" width="80" height="60" as="geometry" />
        </mxCell>
        <mxCell id="mG2xkw9-U8OINMELvQXI-16" value="&lt;div&gt;&lt;br&gt;&lt;/div&gt;&lt;div&gt;&lt;br&gt;&lt;/div&gt;&lt;div&gt;[&lt;/div&gt;&lt;div&gt;&amp;nbsp; {&lt;/div&gt;&lt;div&gt;&amp;nbsp; &amp;nbsp; &quot;timestamp&quot;: &quot;2024-07-23T04:46:00.000Z&quot;,&lt;/div&gt;&lt;div&gt;&amp;nbsp; &amp;nbsp; &quot;sender&quot;: &quot;김승현&quot;,&lt;/div&gt;&lt;div&gt;&amp;nbsp; &amp;nbsp; &quot;message&quot;: &quot;이새끼 뭐임&quot;,&lt;/div&gt;&lt;div&gt;&amp;nbsp; &amp;nbsp; &quot;imageInfo&quot;: {&lt;/div&gt;&lt;div&gt;&amp;nbsp; &amp;nbsp; &amp;nbsp; &quot;imageTF&quot;: false,&lt;/div&gt;&lt;div&gt;&amp;nbsp; &amp;nbsp; &amp;nbsp; &quot;imagePath&quot;: [],&lt;/div&gt;&lt;div&gt;&amp;nbsp; &amp;nbsp; &amp;nbsp; &quot;imageCnt&quot;: 0&lt;/div&gt;&lt;div&gt;&amp;nbsp; &amp;nbsp; }&lt;/div&gt;&lt;div&gt;&amp;nbsp; }&lt;/div&gt;&lt;div&gt;]&lt;/div&gt;" style="rounded=0;whiteSpace=wrap;html=1;align=left;" vertex="1" parent="mG2xkw9-U8OINMELvQXI-1">
          <mxGeometry x="540" y="50" width="260" height="220" as="geometry" />
        </mxCell>
        <mxCell id="mG2xkw9-U8OINMELvQXI-17" value="채팅 json 데이터" style="shape=document;whiteSpace=wrap;html=1;boundedLbl=1;rounded=0;" vertex="1" parent="mG2xkw9-U8OINMELvQXI-1">
          <mxGeometry x="520" y="20" width="120" height="65" as="geometry" />
        </mxCell>
        <mxCell id="INxvwW3Ftz1yXAZ4FPZy-3" value="&lt;div&gt;&lt;br&gt;&lt;/div&gt;채팅.txt" style="shape=note;whiteSpace=wrap;html=1;backgroundOutline=1;darkOpacity=0.05;size=19;" vertex="1" parent="mG2xkw9-U8OINMELvQXI-1">
          <mxGeometry x="40" y="420" width="60" height="60" as="geometry" />
        </mxCell>
        <mxCell id="INxvwW3Ftz1yXAZ4FPZy-6" value="&lt;div&gt;&lt;br&gt;&lt;/div&gt;images&lt;div&gt;&lt;/div&gt;" style="shape=note;whiteSpace=wrap;html=1;backgroundOutline=1;darkOpacity=0.05;size=19;" vertex="1" parent="mG2xkw9-U8OINMELvQXI-1">
          <mxGeometry x="40" y="340" width="60" height="60" as="geometry" />
        </mxCell>
        <mxCell id="INxvwW3Ftz1yXAZ4FPZy-9" value="" style="group" vertex="1" connectable="0" parent="mG2xkw9-U8OINMELvQXI-1">
          <mxGeometry x="200" y="300" width="320" height="200" as="geometry" />
        </mxCell>
        <mxCell id="INxvwW3Ftz1yXAZ4FPZy-1" value="" style="rounded=0;whiteSpace=wrap;html=1;" vertex="1" parent="INxvwW3Ftz1yXAZ4FPZy-9">
          <mxGeometry y="20" width="320" height="180" as="geometry" />
        </mxCell>
        <mxCell id="INxvwW3Ftz1yXAZ4FPZy-8" value="parser&lt;div&gt;class&lt;/div&gt;" style="rounded=0;whiteSpace=wrap;html=1;" vertex="1" parent="INxvwW3Ftz1yXAZ4FPZy-9">
          <mxGeometry x="30" width="60" height="40" as="geometry" />
        </mxCell>
        <mxCell id="INxvwW3Ftz1yXAZ4FPZy-31" value="parse&lt;div&gt;(folder path)&lt;/div&gt;" style="shape=process;whiteSpace=wrap;html=1;backgroundOutline=1;" vertex="1" parent="INxvwW3Ftz1yXAZ4FPZy-9">
          <mxGeometry x="20" y="50" width="90" height="40" as="geometry" />
        </mxCell>
        <mxCell id="INxvwW3Ftz1yXAZ4FPZy-33" value="images&lt;div&gt;path list&lt;/div&gt;" style="rounded=0;whiteSpace=wrap;html=1;" vertex="1" parent="INxvwW3Ftz1yXAZ4FPZy-9">
          <mxGeometry x="20" y="150" width="70" height="30" as="geometry" />
        </mxCell>
        <mxCell id="INxvwW3Ftz1yXAZ4FPZy-34" value="chatString" style="rounded=0;whiteSpace=wrap;html=1;" vertex="1" parent="INxvwW3Ftz1yXAZ4FPZy-9">
          <mxGeometry x="110" y="150" width="70" height="30" as="geometry" />
        </mxCell>
        <mxCell id="INxvwW3Ftz1yXAZ4FPZy-16" style="edgeStyle=orthogonalEdgeStyle;rounded=0;orthogonalLoop=1;jettySize=auto;html=1;exitX=0;exitY=0;exitDx=60;exitDy=39.5;exitPerimeter=0;" edge="1" parent="mG2xkw9-U8OINMELvQXI-1" source="mG2xkw9-U8OINMELvQXI-8">
          <mxGeometry relative="1" as="geometry">
            <mxPoint x="161" y="80" as="targetPoint" />
            <Array as="points">
              <mxPoint x="161" y="80" />
            </Array>
          </mxGeometry>
        </mxCell>
        <mxCell id="INxvwW3Ftz1yXAZ4FPZy-21" style="edgeStyle=orthogonalEdgeStyle;rounded=0;orthogonalLoop=1;jettySize=auto;html=1;exitX=1;exitY=0.5;exitDx=0;exitDy=0;" edge="1" parent="mG2xkw9-U8OINMELvQXI-1" source="INxvwW3Ftz1yXAZ4FPZy-20" target="INxvwW3Ftz1yXAZ4FPZy-31">
          <mxGeometry relative="1" as="geometry">
            <mxPoint x="210" y="370" as="targetPoint" />
            <Array as="points">
              <mxPoint x="140" y="315" />
              <mxPoint x="140" y="370" />
            </Array>
          </mxGeometry>
        </mxCell>
        <mxCell id="INxvwW3Ftz1yXAZ4FPZy-22" value="folder&lt;div&gt;path&lt;/div&gt;" style="edgeLabel;html=1;align=center;verticalAlign=middle;resizable=0;points=[];labelBackgroundColor=none;" vertex="1" connectable="0" parent="INxvwW3Ftz1yXAZ4FPZy-21">
          <mxGeometry x="0.542" y="-1" relative="1" as="geometry">
            <mxPoint x="-11" y="-1" as="offset" />
          </mxGeometry>
        </mxCell>
        <mxCell id="INxvwW3Ftz1yXAZ4FPZy-20" value="folder" style="rounded=0;whiteSpace=wrap;html=1;" vertex="1" parent="mG2xkw9-U8OINMELvQXI-1">
          <mxGeometry x="45" y="300" width="50" height="30" as="geometry" />
        </mxCell>
        <mxCell id="INxvwW3Ftz1yXAZ4FPZy-26" value="채팅 json 데이터" style="shape=document;whiteSpace=wrap;html=1;boundedLbl=1;rounded=0;" vertex="1" parent="mG2xkw9-U8OINMELvQXI-1">
          <mxGeometry x="550" y="330" width="100" height="50" as="geometry" />
        </mxCell>
        <mxCell id="INxvwW3Ftz1yXAZ4FPZy-29" style="edgeStyle=orthogonalEdgeStyle;rounded=0;orthogonalLoop=1;jettySize=auto;html=1;entryX=0;entryY=0.25;entryDx=0;entryDy=0;exitX=1;exitY=0.5;exitDx=0;exitDy=0;" edge="1" parent="mG2xkw9-U8OINMELvQXI-1" source="INxvwW3Ftz1yXAZ4FPZy-31" target="INxvwW3Ftz1yXAZ4FPZy-26">
          <mxGeometry relative="1" as="geometry">
            <mxPoint x="320" y="371" as="sourcePoint" />
          </mxGeometry>
        </mxCell>
      </root>
    </mxGraphModel>
  </diagram>
</mxfile>
